<svg width="44" height="45" fill="none" xmlns="http://www.w3.org/2000/svg"><rect y=".577" width="43.846" height="43.846" rx="21.923" fill="#976FCC"/><path d="M21.923 12.854c-5.325 0-9.646 4.321-9.646 9.647a9.62 9.62 0 001.857 5.695l-1.228 3.637 3.832-1.196a9.624 9.624 0 005.185 1.51c5.326 0 9.647-4.321 9.647-9.646 0-5.326-4.321-9.647-9.647-9.647zm4.417 14.82c-1.751.702-3.839.023-6.123-1.711-2.284-1.734-3.787-4.175-3.888-5.988-.101-1.812 1.374-2.727 2.177-2.721.802.005 1.683 2.57 1.695 2.963.01.398-.982 1.105-1.022 1.442-.039.337 1.353 1.998 1.942 2.447.584.443 1.79 1.296 2.413 1.217.617-.084 1.027-1.324 1.42-1.403.392-.078 2.536.988 2.75 1.263.212.28.19 1.874-1.364 2.491z" fill="#fff"/></svg>